# xmcd
#
# Track frame offsets: 
#        150
#        23675
#        47127
#        83987
#        133872
#        143177
#
# Disc length: 2169 seconds
#
# Revision: 5
# Processed by: cddbd v1.5.1PL2 Copyright (c) Steve Scherf et al.
# Submitted via: ExactAudioCopy v0.95b3
#
DISCID=4e087706
DTITLE=The Rolling Stones - Jamming With Edward!
DYEAR=1972
DGENRE=Classic Rock
TTITLE0=The Boudoir Stomp
TTITLE1=It Hurts Me Too
TTITLE2=Edward's Thrump Up
TTITLE3=Blow With Ry
TTITLE4=Interlude A La El Hopo [Includes "The Loveliest Night Of The Y
TTITLE4=ear"]
TTITLE5=Highland Fling
EXTD=
EXTT0=
EXTT1=
EXTT2=
EXTT3=
EXTT4=
EXTT5=
PLAYORDER=
